<svg width="1480" height="98" viewBox="0 0 1480 98" fill="none" xmlns="http://www.w3.org/2000/svg">
<path d="M1480 98H0V1.38574C0.0113285 1.53105 0.0225881 1.67657 0.0341797 1.82227C0.0653018 2.21346 0.0970692 2.60609 0.129883 3C0.149855 3.23975 0.169818 3.48002 0.19043 3.7207C0.214743 4.00462 0.240408 4.28909 0.265625 4.57422C0.280346 4.74067 0.294537 4.90738 0.30957 5.07422C0.348792 5.5095 0.389278 5.94607 0.430664 6.38379C0.454971 6.64087 0.478837 6.89842 0.503906 7.15625C0.534403 7.46991 0.56699 7.78396 0.598633 8.09863C0.618156 8.29277 0.637261 8.48715 0.657227 8.68164C0.703189 9.12938 0.750479 9.57799 0.798828 10.0273C0.816292 10.1896 0.832805 10.3522 0.850586 10.5146C0.886783 10.8454 0.925365 11.1764 0.962891 11.5078C0.983149 11.6867 1.00279 11.8658 1.02344 12.0449C1.27128 14.1942 1.54865 16.354 1.85645 18.5068C1.96794 19.2866 2.08223 20.0657 2.20215 20.8428C2.39358 22.0832 2.59568 23.3191 2.80957 24.5469C2.94559 25.3276 3.08887 26.1046 3.23438 26.8779C3.29574 27.2041 3.35585 27.5299 3.41895 27.8545C3.45603 28.0453 3.49454 28.2356 3.53223 28.4258C3.60946 28.8156 3.6868 29.2045 3.7666 29.5918C3.8025 29.766 3.84053 29.9396 3.87695 30.1133C3.95587 30.4896 4.03481 30.8648 4.11621 31.2383C4.17008 31.4855 4.22627 31.7316 4.28125 31.9775C4.34334 32.2553 4.40425 32.5326 4.46777 32.8086C4.53388 33.0958 4.60226 33.3817 4.66992 33.667C4.73885 33.9576 4.80639 34.2477 4.87695 34.5361C4.92122 34.7171 4.96778 34.8971 5.0127 35.0771C5.10596 35.451 5.19882 35.8234 5.29492 36.1934C5.32486 36.3086 5.3565 36.4232 5.38672 36.5381C5.49124 36.9353 5.59622 37.3304 5.7041 37.7227C5.76203 37.9333 5.82293 38.1424 5.88184 38.3516C5.96864 38.6597 6.0546 38.9667 6.14355 39.2715C6.20887 39.4952 6.27629 39.7176 6.34277 39.9395C6.42109 40.2008 6.49915 40.4611 6.5791 40.7197C6.66051 40.983 6.74403 41.2445 6.82715 41.5049C6.90254 41.7411 6.97787 41.9763 7.05469 42.21C7.34083 43.0804 7.63504 43.934 7.94141 44.7676C7.98008 44.8728 8.0196 44.9774 8.05859 45.082C8.10886 45.2168 8.15817 45.3516 8.20898 45.4854C9.00068 47.5694 9.85938 49.5248 10.79 51.3203C10.8311 51.3995 10.8727 51.4781 10.9141 51.5566C10.9818 51.6854 11.0497 51.8134 11.1182 51.9404C11.1547 52.0081 11.1918 52.0753 11.2285 52.1426C11.2947 52.2638 11.3608 52.3843 11.4277 52.5039C11.4562 52.5549 11.485 52.6056 11.5137 52.6562C11.5987 52.8067 11.6844 52.9557 11.7705 53.1035C11.8003 53.1545 11.8305 53.2052 11.8604 53.2559C11.9382 53.388 12.0159 53.5194 12.0947 53.6494C12.1344 53.7149 12.1749 53.7798 12.2148 53.8447C12.283 53.9555 12.3511 54.0657 12.4199 54.1748C12.4678 54.2508 12.5162 54.3262 12.5645 54.4014C12.6386 54.5169 12.7131 54.6315 12.7881 54.7451C12.8178 54.7901 12.8471 54.8352 12.877 54.8799C12.9591 55.0031 13.0419 55.1252 13.125 55.2461C13.163 55.3013 13.2011 55.3564 13.2393 55.4111C13.3209 55.5281 13.4028 55.644 13.4854 55.7588C13.5256 55.8147 13.566 55.8704 13.6064 55.9258C13.6752 56.0199 13.7441 56.1135 13.8135 56.2061C13.8636 56.273 13.9144 56.3392 13.9648 56.4053C14.0399 56.5036 14.1156 56.6008 14.1914 56.6973C14.2382 56.7568 14.2849 56.8162 14.332 56.875C14.4161 56.9801 14.5009 57.0838 14.5859 57.1865C14.628 57.2374 14.6706 57.2876 14.7129 57.3379C14.7914 57.4312 14.8699 57.5239 14.9492 57.6152C14.9982 57.6716 15.0474 57.7275 15.0967 57.7832C15.18 57.8773 15.2635 57.9705 15.3477 58.0625C15.3876 58.1061 15.4277 58.1493 15.4678 58.1924C15.5536 58.2847 15.6398 58.3758 15.7266 58.4658C15.7786 58.5198 15.8304 58.5738 15.8828 58.627C15.9569 58.7022 16.0317 58.7761 16.1064 58.8496C16.1644 58.9066 16.222 58.9636 16.2803 59.0195C16.3521 59.0885 16.4247 59.1562 16.4971 59.2236C16.5589 59.2812 16.6203 59.339 16.6826 59.3955C16.7711 59.4757 16.8608 59.554 16.9502 59.6318C16.9922 59.6684 17.034 59.7051 17.0762 59.7412C17.17 59.8214 17.2646 59.8999 17.3594 59.9775C17.4089 60.0181 17.458 60.0588 17.5078 60.0986C17.5972 60.1702 17.688 60.2393 17.7783 60.3086C17.8259 60.3451 17.873 60.3821 17.9209 60.418C18.0157 60.4891 18.1113 60.5584 18.207 60.627C18.2574 60.663 18.3068 60.7 18.3574 60.7354C18.4388 60.7921 18.5215 60.8465 18.6035 60.9014C18.667 60.9439 18.73 60.9869 18.7939 61.0283C18.8935 61.0928 18.9941 61.1551 19.0947 61.2168C19.1401 61.2447 19.1849 61.2735 19.2305 61.3008C19.6768 61.568 20.1326 61.8086 20.5986 62.0205L22.082 62.6797C22.5443 62.8811 23.0087 63.0784 23.4746 63.2734C23.7174 63.3751 23.9613 63.4743 24.2051 63.5742C24.4477 63.6737 24.69 63.7743 24.9336 63.8721C25.2399 63.995 25.5476 64.115 25.8555 64.2354C26.0172 64.2986 26.1787 64.3623 26.3408 64.4248C26.6504 64.5442 26.9614 64.6606 27.2725 64.7773C27.4644 64.8494 27.6561 64.9221 27.8486 64.9932C28.1127 65.0906 28.3775 65.1866 28.6426 65.2822C28.8801 65.3679 29.1181 65.4529 29.3564 65.5371C29.6109 65.627 29.8657 65.7164 30.1211 65.8047C30.3706 65.8909 30.6207 65.9759 30.8711 66.0605C31.1187 66.1443 31.3668 66.2273 31.6152 66.3096C31.8557 66.3891 32.0966 66.4677 32.3379 66.5459C32.6148 66.6356 32.892 66.7246 33.1699 66.8125C33.3533 66.8705 33.5369 66.9282 33.7207 66.9854C34.055 67.0894 34.3899 67.1925 34.7256 67.2939C34.8891 67.3433 35.053 67.3917 35.2168 67.4404C35.546 67.5385 35.8755 67.6368 36.2061 67.7324C36.4452 67.8016 36.685 67.8687 36.9248 67.9365C37.1811 68.009 37.4373 68.0822 37.6943 68.1533C38.0159 68.2422 38.3384 68.3283 38.6611 68.415C38.8564 68.4675 39.0514 68.5216 39.2471 68.5732C39.4885 68.637 39.7306 68.6982 39.9727 68.7607C40.5413 68.9076 41.1115 69.0512 41.6836 69.1914C41.8922 69.2425 42.1005 69.2954 42.3096 69.3457C42.5864 69.4122 42.864 69.476 43.1416 69.541C43.3985 69.6012 43.6555 69.6618 43.9131 69.7207C44.1364 69.7718 44.3601 69.8219 44.584 69.8721C44.8863 69.9398 45.189 70.0072 45.4922 70.0732C45.7402 70.1272 45.9887 70.1796 46.2373 70.2324C46.5348 70.2957 46.8326 70.3583 47.1309 70.4199C47.3354 70.4622 47.5402 70.5034 47.7451 70.5449C48.0657 70.6098 48.3865 70.6752 48.708 70.7383C48.983 70.7923 49.2585 70.8448 49.5342 70.8975C49.7544 70.9395 49.9747 70.9812 50.1953 71.0225C50.5012 71.0796 50.8076 71.1358 51.1143 71.1914C51.3637 71.2366 51.6134 71.281 51.8633 71.3252C52.1481 71.3755 52.4333 71.4256 52.7188 71.4746C52.9776 71.5191 53.2367 71.5631 53.4961 71.6064C53.7702 71.6523 54.0446 71.6976 54.3193 71.7422C54.5893 71.786 54.8594 71.8294 55.1299 71.8721C55.4034 71.9153 55.6771 71.9589 55.9512 72.001C56.1928 72.038 56.4348 72.0732 56.6768 72.1094C56.9923 72.1565 57.3079 72.2043 57.624 72.25C57.8052 72.2762 57.9866 72.3015 58.168 72.3271C58.515 72.3763 58.8622 72.4253 59.21 72.4727C59.7533 72.5467 60.2976 72.6186 60.8428 72.6885C60.8783 72.693 60.9137 72.6976 60.9492 72.7021C61.4667 72.7682 61.9849 72.8322 62.5039 72.8945C62.6646 72.9138 62.8255 72.9322 62.9863 72.9512C63.3815 72.9977 63.7769 73.0444 64.1729 73.0889C64.4334 73.1181 64.6942 73.1454 64.9551 73.1738C65.2072 73.2013 65.4594 73.2292 65.7119 73.2559C66.0365 73.2901 66.3614 73.3226 66.6865 73.3555C66.9338 73.3805 67.1811 73.4064 67.4287 73.4307C67.6981 73.4571 67.9676 73.4823 68.2373 73.5078C68.5493 73.5373 68.8614 73.5664 69.1738 73.5947C69.4113 73.6163 69.649 73.6373 69.8867 73.6582C70.2058 73.6862 70.5252 73.7134 70.8447 73.7402C71.1034 73.762 71.3622 73.7837 71.6211 73.8047C71.8879 73.8263 72.1548 73.8473 72.4219 73.8682C72.7098 73.8906 72.9979 73.913 73.2861 73.9346C73.5676 73.9556 73.8492 73.9759 74.1309 73.9961C74.4504 74.019 74.77 74.0417 75.0898 74.0635C75.2477 74.0742 75.4056 74.0842 75.5635 74.0947C75.9311 74.1191 76.2989 74.144 76.667 74.167C76.9673 74.1858 77.2678 74.2038 77.5684 74.2217C77.8352 74.2376 78.1021 74.2534 78.3691 74.2686C78.8418 74.2954 79.3148 74.321 79.7881 74.3457C79.8574 74.3493 79.9267 74.3539 79.9961 74.3574C81.0255 74.4104 82.0562 74.4577 83.0879 74.501C84.1628 74.5461 85.2387 74.5858 86.3154 74.6211C86.4417 74.6252 86.568 74.6298 86.6943 74.6338C87.66 74.6644 88.6262 74.6905 89.5928 74.7139C89.7285 74.7171 89.8642 74.7205 90 74.7236C90.5542 74.7365 91.1087 74.7453 91.6631 74.7559C92.3098 74.7682 92.9566 74.7806 93.6035 74.79C94.1201 74.7976 94.6367 74.8038 95.1533 74.8096C95.7803 74.8166 96.4073 74.8226 97.0342 74.8271C97.5697 74.831 98.1052 74.8337 98.6406 74.8359C99.1984 74.8382 99.756 74.8403 100.313 74.8408C100.927 74.8414 101.54 74.8412 102.152 74.8398C102.663 74.8387 103.174 74.8364 103.685 74.834C104.289 74.8311 104.893 74.8279 105.497 74.8232C106.061 74.8189 106.625 74.8133 107.188 74.8076C107.747 74.802 108.306 74.7969 108.864 74.79C109.392 74.7835 109.919 74.7761 110.445 74.7686C111.045 74.76 111.645 74.751 112.244 74.7412C113.777 74.7161 115.305 74.6868 116.83 74.6553C120.954 74.5699 125.047 74.4671 129.09 74.3633C130.438 74.3287 131.78 74.2953 133.116 74.2617C138.274 74.1321 143.339 74.0153 148.274 73.958C150.346 73.934 152.394 73.9199 154.417 73.9199C165.492 73.9199 176.528 73.9116 187.533 73.8721C191.368 73.8583 195.199 73.8414 199.026 73.8184C199.158 73.8176 199.289 73.8172 199.42 73.8164C203.621 73.7907 207.819 73.7576 212.013 73.7178C212.918 73.7092 213.823 73.7008 214.729 73.6914C215.912 73.6792 217.095 73.6649 218.277 73.6514C219.615 73.636 220.953 73.6216 222.29 73.6045C223.334 73.5911 224.377 73.5751 225.421 73.5605C226.895 73.54 228.369 73.52 229.843 73.4971C231.129 73.477 232.416 73.4546 233.702 73.4326C234.818 73.4135 235.933 73.3956 237.049 73.375C238.398 73.3501 239.748 73.3222 241.097 73.2949C242.346 73.2697 243.594 73.2451 244.843 73.2178C246.078 73.1908 247.314 73.16 248.549 73.1309C249.702 73.1037 250.856 73.0779 252.009 73.0488C253.685 73.0065 255.361 72.9606 257.037 72.9141C257.809 72.8927 258.58 72.8719 259.352 72.8496C262.873 72.7477 266.394 72.6368 269.914 72.5146C269.987 72.5121 270.061 72.5104 270.134 72.5078C271.2 72.4707 272.266 72.4317 273.332 72.3926C273.663 72.3804 273.993 72.3688 274.324 72.3564C275.06 72.329 275.796 72.3009 276.532 72.2725C277.154 72.2485 277.776 72.2239 278.397 72.1992C279.046 72.1734 279.695 72.1476 280.344 72.1211C280.882 72.0991 281.419 72.0763 281.957 72.0537C282.763 72.0199 283.569 71.9862 284.375 71.9512C284.687 71.9376 284.999 71.9239 285.311 71.9102C286.321 71.8656 287.331 71.8199 288.341 71.7734C288.517 71.7653 288.693 71.7572 288.869 71.749C289.924 71.7001 290.979 71.6498 292.033 71.5986C292.213 71.5899 292.393 71.5811 292.573 71.5723C293.557 71.5242 294.541 71.4749 295.525 71.4248C296.016 71.3998 296.507 71.3751 296.997 71.3496C297.616 71.3175 298.235 71.2849 298.854 71.252C299.435 71.221 300.016 71.1898 300.597 71.1582C301.488 71.1097 302.379 71.06 303.27 71.0098C303.376 71.0038 303.482 70.9982 303.588 70.9922C304.639 70.9327 305.689 70.8725 306.74 70.8105C307.1 70.7893 307.46 70.7676 307.82 70.7461C308.668 70.6955 309.516 70.6441 310.364 70.5918C310.792 70.5654 311.22 70.5385 311.648 70.5117C312.478 70.4598 313.308 70.4071 314.138 70.3535C314.565 70.3259 314.992 70.2975 315.42 70.2695C316.162 70.2209 316.904 70.172 317.646 70.1221C318.198 70.085 318.75 70.0476 319.302 70.0098C320.047 69.9587 320.791 69.9069 321.536 69.8545C322.017 69.8206 322.498 69.7864 322.979 69.752C323.74 69.6975 324.5 69.6428 325.261 69.5869C325.672 69.5567 326.084 69.5258 326.495 69.4951C327.375 69.4296 328.255 69.3634 329.135 69.2959C329.428 69.2734 329.721 69.2502 330.014 69.2275C330.898 69.1591 331.783 69.091 332.668 69.0205C333.132 68.9835 333.596 68.9457 334.061 68.9082C334.941 68.837 335.822 68.7647 336.703 68.6914C336.821 68.6816 336.939 68.672 337.058 68.6621C338.091 68.5759 339.124 68.4885 340.157 68.3994C340.78 68.3457 341.403 68.2901 342.026 68.2354C342.595 68.1854 343.164 68.1358 343.732 68.085C344.357 68.0291 344.981 67.9719 345.605 67.915C346.337 67.8484 347.068 67.782 347.8 67.7139C347.968 67.6982 348.136 67.6817 348.304 67.666C349.391 67.5642 350.479 67.4616 351.567 67.3564C351.714 67.3423 351.861 67.3277 352.008 67.3135C353.084 67.2091 354.159 67.1028 355.235 66.9951C355.458 66.9728 355.681 66.9502 355.904 66.9277C356.926 66.8248 357.947 66.7212 358.969 66.6152C359.277 66.5832 359.586 66.5508 359.895 66.5186C360.793 66.4246 361.691 66.3297 362.589 66.2334C362.967 66.1928 363.345 66.1513 363.724 66.1104C367.092 65.7454 370.462 65.3637 373.835 64.9639C374.265 64.9129 374.695 64.8611 375.125 64.8096C375.969 64.7083 376.814 64.6074 377.658 64.5039C377.732 64.4949 377.805 64.4856 377.879 64.4766C380.285 64.1811 382.693 63.8767 385.102 63.5625C385.286 63.5384 385.471 63.5135 385.656 63.4893C389.235 63.0204 392.816 62.5324 396.4 62.0205C400.809 61.3907 405.22 60.7545 409.633 60.1172C411.503 59.8472 413.373 59.5769 415.243 59.3057C423.913 58.0486 432.589 56.779 441.271 55.502C447.646 54.5641 454.025 53.624 460.405 52.6797L481.783 49.5107L481.812 49.5068L481.821 49.5049C539.418 40.9612 597.163 32.3965 654.666 25.1533C662.393 24.18 670.116 23.2299 677.833 22.3076L684.136 21.5605C687.42 21.1738 690.695 20.7833 693.964 20.3896C697.233 19.996 700.494 19.5995 703.749 19.2012C710.259 18.4047 716.742 17.6009 723.206 16.7998L723.229 16.7969L723.239 16.7949C734.195 15.4373 745.095 14.0868 755.971 12.7881C768.66 11.2729 781.316 9.82915 793.991 8.52734C795.802 8.34136 797.613 8.15749 799.425 7.97754C803.048 7.61765 806.673 7.27078 810.302 6.9375C813.93 6.60425 817.561 6.28474 821.197 5.98145C830.183 5.23187 839.196 4.57905 848.254 4.04785C848.409 4.03877 848.564 4.02952 848.719 4.02051C851.419 3.86344 854.123 3.71769 856.831 3.58301C857.751 3.53727 858.671 3.49227 859.592 3.44922C865.114 3.19102 870.656 2.98222 876.221 2.82715C877.148 2.8013 878.077 2.77671 879.006 2.75391C885.508 2.59433 892.042 2.50977 898.615 2.50977H1370.95C1371.62 2.50977 1372.33 2.52069 1373.11 2.54102C1373.72 2.55714 1374.36 2.57973 1375.03 2.60742C1375.18 2.61361 1375.34 2.61924 1375.49 2.62598C1376.61 2.675 1377.8 2.74018 1379.07 2.81543C1383.68 3.08946 1389.24 3.52147 1395.35 4C1395.54 4.01508 1395.73 4.02975 1395.93 4.04492L1401.59 4.48633C1403.45 4.62949 1405.34 4.77215 1407.25 4.91406C1408.91 5.03669 1410.58 5.15744 1412.27 5.27539C1412.55 5.29472 1412.83 5.31484 1413.1 5.33398C1413.53 5.36312 1413.95 5.39125 1414.37 5.41992C1414.95 5.45897 1415.53 5.49805 1416.11 5.53613C1416.56 5.56592 1417.01 5.5949 1417.47 5.62402C1418.01 5.6587 1418.55 5.69294 1419.09 5.72656C1419.52 5.75296 1419.95 5.779 1420.37 5.80469C1421.02 5.84357 1421.66 5.88184 1422.31 5.91895C1422.63 5.93739 1422.95 5.95566 1423.27 5.97363C1423.87 6.00691 1424.46 6.03876 1425.06 6.07031C1425.59 6.0987 1426.13 6.12645 1426.66 6.15332C1427.08 6.174 1427.49 6.19316 1427.9 6.21289C1428.44 6.23909 1428.99 6.26561 1429.54 6.29004C1430.09 6.31479 1430.64 6.33754 1431.19 6.36035C1431.6 6.37726 1432.01 6.39437 1432.41 6.41016C1433.01 6.4332 1433.6 6.45407 1434.19 6.47461C1434.63 6.48978 1435.06 6.5058 1435.5 6.51953C1436.23 6.5424 1436.95 6.56143 1437.67 6.58008C1437.88 6.58559 1438.09 6.59253 1438.3 6.59766C1440.28 6.64536 1442.23 6.67711 1444.15 6.68848C1444.95 6.69325 1445.75 6.69374 1446.54 6.69141C1446.67 6.69103 1446.79 6.69099 1446.92 6.69043C1447.71 6.68691 1448.5 6.67911 1449.27 6.66797C1449.41 6.66606 1449.54 6.66425 1449.67 6.66211C1449.9 6.65845 1450.13 6.65474 1450.35 6.65039C1450.61 6.64548 1450.86 6.63959 1451.12 6.63379C1451.3 6.6297 1451.47 6.62563 1451.65 6.62109C1451.9 6.61478 1452.15 6.60779 1452.39 6.60059C1452.65 6.59303 1452.91 6.58569 1453.16 6.57715C1453.31 6.57221 1453.46 6.5668 1453.61 6.56152C1453.85 6.55282 1454.09 6.5438 1454.33 6.53418C1454.59 6.52377 1454.85 6.51248 1455.11 6.50098C1455.3 6.4927 1455.48 6.48444 1455.67 6.47559C1455.9 6.46465 1456.12 6.45226 1456.35 6.44043C1456.54 6.43054 1456.73 6.42165 1456.92 6.41113C1457.1 6.40116 1457.27 6.38946 1457.45 6.37891C1457.98 6.34736 1458.51 6.31414 1459.02 6.27734C1459.47 6.24544 1459.92 6.21175 1460.36 6.17578C1460.65 6.15185 1460.94 6.12635 1461.23 6.10059C1461.43 6.08317 1461.62 6.06612 1461.81 6.04785C1461.97 6.03334 1462.12 6.01799 1462.27 6.00293C1462.51 5.97986 1462.74 5.95698 1462.97 5.93262C1463.16 5.9129 1463.34 5.89166 1463.53 5.87109C1463.73 5.84891 1463.92 5.8269 1464.12 5.80371C1464.3 5.7826 1464.48 5.76023 1464.65 5.73828C1464.83 5.71593 1465.01 5.69414 1465.19 5.6709C1465.4 5.64393 1465.6 5.61509 1465.81 5.58691C1465.98 5.56345 1466.15 5.53993 1466.32 5.51562C1466.49 5.49083 1466.66 5.46514 1466.83 5.43945C1467.01 5.41104 1467.2 5.38206 1467.38 5.35254C1467.55 5.32545 1467.72 5.29853 1467.89 5.27051C1468.07 5.23943 1468.26 5.20705 1468.44 5.1748C1468.59 5.14913 1468.73 5.12408 1468.87 5.09766C1469.05 5.06462 1469.23 5.03031 1469.41 4.99609C1469.59 4.96183 1469.76 4.92706 1469.93 4.8916C1470.09 4.86019 1470.24 4.82826 1470.39 4.7959C1470.54 4.76374 1470.69 4.73134 1470.84 4.69824C1471.02 4.65767 1471.21 4.61623 1471.38 4.57422C1471.51 4.54345 1471.64 4.51299 1471.77 4.48145C1471.97 4.4342 1472.16 4.38495 1472.35 4.33594C1472.45 4.30805 1472.56 4.28139 1472.67 4.25293C1472.84 4.20606 1473.01 4.15587 1473.18 4.10742C1473.31 4.07222 1473.43 4.03897 1473.55 4.00293C1473.73 3.94948 1473.91 3.89321 1474.09 3.83789C1474.37 3.7501 1474.64 3.65995 1474.91 3.56738C1474.98 3.54068 1475.06 3.51636 1475.14 3.48926C1475.27 3.44193 1475.4 3.39134 1475.53 3.34277C1475.66 3.29443 1475.79 3.24685 1475.91 3.19727C1476.03 3.1485 1476.16 3.09783 1476.28 3.04785C1476.4 2.99903 1476.51 2.95038 1476.63 2.90039C1476.82 2.81756 1477 2.73449 1477.19 2.64844C1477.21 2.63697 1477.23 2.6248 1477.26 2.61328C1477.46 2.51875 1477.65 2.42364 1477.84 2.3252C1477.88 2.30074 1477.93 2.27567 1477.98 2.25098C1478.02 2.22599 1478.07 2.20102 1478.12 2.17578C1478.18 2.13802 1478.25 2.09887 1478.32 2.06055C1478.35 2.03997 1478.39 2.02074 1478.43 2C1478.62 1.88559 1478.81 1.76884 1479 1.64941L1479.28 1.45996C1479.33 1.42435 1479.38 1.38606 1479.43 1.3457C1479.63 1.18715 1479.82 0.991505 1480 0.761719V98Z" fill="black"/>
</svg>