<svg width="1428" height="188" viewBox="0 0 1428 188" fill="none" xmlns="http://www.w3.org/2000/svg">
<path d="M1428 187.998C1427.71 187.844 1427.42 187.69 1427.13 187.539C1426.48 187.197 1425.81 186.864 1425.15 186.536C1421.67 184.832 1418.07 183.313 1414.67 181.88C1412.13 180.814 1409.71 179.794 1407.54 178.779C1407.49 178.757 1407.44 178.735 1407.39 178.713C1384.93 168.25 1360.17 160.54 1335.75 152.935C1326.16 149.949 1316.62 146.978 1307.29 143.864C1305.74 143.345 1304.19 142.822 1302.65 142.294C1301.1 141.766 1299.57 141.234 1298.04 140.696C1290.11 137.906 1282.09 135.141 1274.01 132.383C1269.96 131.004 1265.9 129.625 1261.83 128.246C1257.76 126.867 1253.67 125.488 1249.57 124.104C1245.69 122.794 1241.8 121.479 1237.9 120.16C1226.2 116.202 1214.44 112.197 1202.7 108.086C1198.78 106.715 1194.87 105.334 1190.96 103.938C1187.05 102.542 1183.15 101.131 1179.25 99.7051C1170.48 96.4968 1161.75 93.2072 1153.08 89.8125C1149.23 88.3038 1145.39 86.7741 1141.56 85.2217C1139.65 84.4455 1137.74 83.6639 1135.84 82.876C1128.23 79.7238 1120.68 76.4748 1113.23 73.1133C1112.3 72.6932 1111.37 72.2714 1110.44 71.8477C1100.22 67.1863 1090.18 62.3063 1080.37 57.1641C1079.48 56.6966 1078.59 56.2277 1077.7 55.7559C1075.92 54.8123 1074.16 53.859 1072.4 52.8975C1070.64 51.9358 1068.89 50.9654 1067.14 49.9854C1065.81 49.2326 1064.44 48.5018 1063.04 47.792C1062.34 47.4371 1061.63 47.0867 1060.92 46.7422C1050.92 41.9192 1039.6 38.1109 1028.08 35.0557C1027.25 34.8374 1026.43 34.6227 1025.6 34.4121C1023.95 33.9908 1022.3 33.5845 1020.65 33.1924C1019.83 32.9964 1019 32.8042 1018.18 32.6152C1009.11 30.5359 1000.12 28.8752 991.769 27.5059C973.78 24.5571 955.842 21.8582 937.933 19.4033C936.142 19.1578 934.351 18.9144 932.561 18.6738C916.447 16.5083 900.354 14.5396 884.268 12.7637C875.331 11.777 866.395 10.85 857.459 9.98145C844.948 8.76549 832.435 7.66484 819.913 6.67676C807.391 5.68867 794.86 4.81326 782.312 4.04883C778.726 3.83043 775.14 3.62126 771.552 3.4209C767.964 3.22052 764.374 3.02912 760.782 2.84668C754.103 2.50739 747.417 2.20058 740.725 1.92285C724.029 1.22997 707.288 0.726708 690.487 0.410156C676.005 0.137303 661.478 0.00198821 646.894 0.00195312H646.889C645.067 0.00195312 643.255 0.00151573 641.452 0.000976562C633.868 -0.00129128 626.439 -0.00319109 619.124 0.0351562C616.199 0.0504861 613.291 0.0716458 610.399 0.102539C607.507 0.133448 604.63 0.173921 601.767 0.225586C598.903 0.277237 596.052 0.340381 593.212 0.417969C591.792 0.456765 590.374 0.499647 588.959 0.545898C584.005 0.707767 579.079 0.916443 574.166 1.1875C573.464 1.22623 572.762 1.26633 572.061 1.30762C564.345 1.76166 556.658 2.37263 548.942 3.19434C546.838 3.41842 544.732 3.65851 542.623 3.91504C541.217 4.08608 539.809 4.2649 538.399 4.45117C536.99 4.63745 535.578 4.83104 534.165 5.0332C530.632 5.53853 527.086 6.09441 523.522 6.70605C522.809 6.82843 522.095 6.9532 521.381 7.08008C515.837 8.06446 510.247 9.18728 504.592 10.4639C504.418 10.5032 504.243 10.5415 504.068 10.5811L502.519 10.9395C501.744 11.1223 500.97 11.3121 500.196 11.5049C499.953 11.5654 499.71 11.6241 499.467 11.6855C499.366 11.7111 499.264 11.7379 499.163 11.7637C497.707 12.1342 496.251 12.5215 494.795 12.9238C494.718 12.9452 494.64 12.9668 494.562 12.9883C494.159 13.1003 493.754 13.2129 493.351 13.3271C493.179 13.3756 493.008 13.4257 492.837 13.4746C492.479 13.5768 492.12 13.6793 491.762 13.7832C491.634 13.8203 491.506 13.8582 491.378 13.8955C490.993 14.0077 490.608 14.1202 490.224 14.2344C490.114 14.2668 490.005 14.2995 489.896 14.332C489.014 14.5947 488.133 14.8618 487.252 15.1338C487.015 15.207 486.778 15.2817 486.541 15.3555C486.218 15.4561 485.894 15.5564 485.571 15.6582C485.477 15.6879 485.382 15.7182 485.288 15.748C484.942 15.8575 484.595 15.9684 484.249 16.0791C483.495 16.3204 482.74 16.5645 481.985 16.8115C481.346 17.021 480.706 17.234 480.066 17.4473C479.692 17.572 479.317 17.6963 478.943 17.8223C478.374 18.0139 477.805 18.2081 477.236 18.4023C476.745 18.5702 476.252 18.7375 475.761 18.9072C475.185 19.1062 474.608 19.3075 474.032 19.5088C473.642 19.6452 473.251 19.7815 472.86 19.9189C472.084 20.1921 471.308 20.4674 470.532 20.7441C470.305 20.8253 470.077 20.9059 469.85 20.9873C469.063 21.2689 468.277 21.5533 467.49 21.8379C467.235 21.9302 466.98 22.0217 466.725 22.1143C462.646 23.5954 458.568 25.1113 454.496 26.626C451.764 27.6422 449.033 28.6582 446.305 29.6621C443.576 30.6662 440.849 31.6582 438.125 32.6279C432.677 34.567 427.24 36.4161 421.815 38.085C374.463 52.654 326.43 64.2692 278.348 75.8965L267.37 78.5527C263.784 79.4214 260.197 80.2915 256.61 81.1641C256.271 81.2467 255.931 81.3304 255.591 81.4131C252.453 82.177 249.314 82.9421 246.177 83.7109C244.631 84.0896 243.086 84.4714 241.541 84.8516C239.451 85.3659 237.36 85.88 235.27 86.3975C234.252 86.6495 233.234 86.9014 232.216 87.1543C231.741 87.2723 231.266 87.3906 230.791 87.5088C229.645 87.794 228.498 88.0798 227.353 88.3662C226.597 88.5551 225.841 88.7452 225.086 88.9346C224.179 89.1618 223.273 89.3891 222.366 89.6172C221.461 89.8449 220.556 90.0732 219.651 90.3018C218.745 90.5306 217.839 90.7596 216.934 90.9893C216.093 91.2024 215.252 91.4159 214.412 91.6299C213.385 91.8914 212.358 92.1543 211.331 92.417C210.744 92.5673 210.156 92.7184 209.568 92.8691C208.466 93.1521 207.363 93.4353 206.261 93.7197C205.401 93.9416 204.541 94.1648 203.682 94.3877C202.785 94.6202 201.888 94.8523 200.991 95.0859C199.809 95.3938 198.628 95.7028 197.446 96.0127C196.943 96.1448 196.438 96.2767 195.935 96.4092C194.492 96.7887 193.05 97.171 191.607 97.5537C191.239 97.6514 190.87 97.7478 190.502 97.8457C189.791 98.0349 189.08 98.2261 188.369 98.416C186.159 99.0067 183.948 99.6013 181.739 100.2C181.117 100.369 180.494 100.537 179.871 100.706C179.413 100.831 178.956 100.957 178.498 101.082C177.137 101.454 175.776 101.827 174.415 102.202C173.872 102.352 173.329 102.503 172.786 102.653C171.651 102.968 170.516 103.283 169.381 103.6C168.589 103.821 167.797 104.043 167.005 104.266C165.975 104.555 164.944 104.844 163.914 105.136C163.192 105.34 162.47 105.546 161.748 105.752C160.736 106.04 159.724 106.328 158.713 106.618C157.904 106.85 157.094 107.085 156.285 107.318C155.371 107.582 154.457 107.846 153.543 108.112C152.58 108.392 151.618 108.675 150.655 108.957C149.896 109.18 149.137 109.403 148.378 109.627C147.439 109.904 146.499 110.183 145.561 110.462C144.708 110.716 143.855 110.971 143.002 111.227C142.078 111.504 141.153 111.781 140.229 112.061C139.432 112.302 138.634 112.544 137.836 112.787C136.896 113.073 135.956 113.36 135.017 113.648C134.18 113.905 133.343 114.164 132.507 114.423C131.59 114.706 130.673 114.991 129.757 115.276C128.897 115.545 128.038 115.815 127.179 116.085C126.304 116.36 125.429 116.635 124.555 116.912C123.714 117.179 122.874 117.448 122.033 117.717C121.096 118.016 120.159 118.315 119.223 118.617C118.475 118.858 117.728 119.102 116.98 119.345C112.594 120.77 108.211 122.221 103.836 123.706C103.772 123.728 103.708 123.75 103.645 123.771L101.087 124.647C99.3759 125.239 97.6074 125.863 95.791 126.516C95.5383 126.606 95.2848 126.699 95.0303 126.791C94.3813 127.026 93.7257 127.263 93.0654 127.505C92.741 127.624 92.4158 127.746 92.0889 127.867C91.4353 128.109 90.7755 128.352 90.1123 128.601C89.8991 128.681 89.6858 128.763 89.4717 128.844C88.7652 129.11 88.053 129.38 87.3369 129.654C86.9203 129.814 86.5026 129.977 86.083 130.14C85.5279 130.355 84.9692 130.57 84.4092 130.79C83.9917 130.954 83.5733 131.121 83.1533 131.287C82.5751 131.516 81.9937 131.746 81.4111 131.98C80.9683 132.158 80.5251 132.341 80.0801 132.521C79.5422 132.74 79.0017 132.959 78.4609 133.182C77.6354 133.522 76.806 133.866 75.9746 134.216C75.7873 134.295 75.5996 134.374 75.4121 134.453C75.1889 134.547 74.9648 134.641 74.7412 134.736C73.828 135.125 72.9119 135.519 71.9941 135.919C71.9181 135.952 71.8417 135.985 71.7656 136.019C71.4619 136.151 71.1576 136.284 70.8535 136.418C70.5533 136.55 70.2527 136.683 69.9521 136.816C69.7211 136.919 69.49 137.023 69.2588 137.126C69.0344 137.226 68.8095 137.327 68.585 137.428C68.2452 137.58 67.9053 137.734 67.5654 137.889C67.3916 137.968 67.2169 138.046 67.043 138.125C66.7738 138.248 66.5045 138.371 66.2354 138.495C65.9236 138.638 65.6115 138.782 65.2998 138.927C65.1668 138.988 65.0334 139.05 64.9004 139.112C64.5886 139.257 64.2765 139.403 63.9648 139.55C63.5552 139.742 63.1456 139.936 62.7363 140.131C62.6298 140.182 62.5225 140.231 62.416 140.282C61.0942 140.913 59.7748 141.556 58.46 142.21C57.7759 142.55 57.0932 142.894 56.4121 143.24C55.3287 143.791 54.2484 144.349 53.1748 144.915C52.4027 145.322 51.6339 145.735 50.8682 146.15C50.636 146.276 50.4034 146.402 50.1719 146.528C50.1171 146.558 50.0625 146.589 50.0078 146.619C49.5729 146.858 49.1385 147.097 48.7061 147.338C48.4945 147.456 48.2832 147.575 48.0723 147.693C47.7803 147.857 47.488 148.021 47.1973 148.187C47.0455 148.273 46.8945 148.361 46.7432 148.447C46.4177 148.633 46.0923 148.819 45.7686 149.007C45.4663 149.182 45.165 149.359 44.8643 149.535C44.6954 149.634 44.5258 149.733 44.3574 149.832C44.1222 149.971 43.8876 150.111 43.6533 150.251C43.3613 150.425 43.0697 150.6 42.7793 150.775C42.6144 150.875 42.4495 150.975 42.2852 151.075C41.9949 151.252 41.7055 151.43 41.417 151.607C41.2158 151.731 41.0147 151.856 40.8145 151.98C40.5286 152.158 40.243 152.337 39.959 152.516C39.7744 152.632 39.5901 152.749 39.4062 152.866C39.1343 153.039 38.8629 153.213 38.5928 153.387C38.374 153.528 38.156 153.67 37.9385 153.812C37.7009 153.966 37.4637 154.122 37.2275 154.277C36.997 154.429 36.7672 154.583 36.5381 154.735C36.3192 154.881 36.1003 155.027 35.8828 155.174C35.6477 155.332 35.4132 155.492 35.1797 155.651C34.9529 155.806 34.7262 155.961 34.501 156.117C34.3064 156.252 34.1123 156.387 33.9189 156.522C33.6464 156.713 33.3745 156.904 33.1045 157.096C32.9301 157.22 32.7564 157.344 32.583 157.469C32.3329 157.648 32.0838 157.828 31.8359 158.009C31.6531 158.142 31.4706 158.276 31.2891 158.409C31.0255 158.603 30.7629 158.798 30.502 158.993C30.3388 159.115 30.1758 159.238 30.0137 159.36C29.7782 159.538 29.5437 159.717 29.3105 159.896C29.1045 160.055 28.8986 160.213 28.6943 160.372C28.4559 160.558 28.2193 160.745 27.9834 160.932C27.837 161.047 27.6903 161.163 27.5449 161.279C27.2822 161.489 27.0211 161.701 26.7617 161.912C26.6011 162.043 26.4406 162.174 26.2812 162.306C26.0599 162.488 25.8399 162.672 25.6211 162.855C25.4422 163.005 25.2631 163.155 25.0859 163.306C24.8673 163.492 24.6505 163.679 24.4346 163.866C24.266 164.012 24.0976 164.158 23.9307 164.305C23.7122 164.496 23.4958 164.69 23.2803 164.883C23.1173 165.029 22.9542 165.174 22.793 165.32C22.5892 165.505 22.3876 165.692 22.1865 165.878C22.0164 166.035 21.8458 166.192 21.6777 166.35C21.4904 166.526 21.3049 166.703 21.1201 166.88C20.9433 167.049 20.7663 167.218 20.5918 167.388C20.3794 167.595 20.1698 167.804 19.9609 168.012C19.8321 168.14 19.7027 168.268 19.5752 168.396C19.3738 168.6 19.1755 168.805 18.9775 169.01C18.8171 169.175 18.6552 169.339 18.4971 169.506C18.4687 169.536 18.4404 169.566 18.4121 169.596C18.1229 169.901 17.8369 170.207 17.5557 170.515C17.5066 170.568 17.458 170.623 17.4092 170.677C16.8052 171.341 16.2198 172.011 15.6543 172.687C15.3575 173.041 15.0651 173.397 14.7793 173.754C14.6274 173.944 14.4705 174.136 14.3096 174.331C13.7412 175.019 13.1156 175.736 12.4414 176.479C12.1638 176.784 11.8782 177.095 11.584 177.409C10.8913 178.148 10.1535 178.909 9.37598 179.686C9.25718 179.804 9.13724 179.924 9.0166 180.043C8.42942 180.624 7.81971 181.214 7.19141 181.811C5.07325 183.822 2.73236 185.91 0.250977 188H0V0H1428V187.998ZM1428 188H1428V187.998L1428 188Z" fill="black"/>
</svg>
