<svg width="1428" height="188" viewBox="0 0 1428 188" fill="none" xmlns="http://www.w3.org/2000/svg">
<path d="M646.889 0.00199777H646.894C661.478 0.00203285 676.005 0.137348 690.487 0.410201C707.288 0.726753 724.029 1.23002 740.725 1.9229C747.417 2.20062 754.103 2.50743 760.782 2.84672C764.374 3.02916 767.964 3.22057 771.552 3.42094C775.14 3.62131 778.726 3.83047 782.312 4.04887C794.86 4.8133 807.391 5.68871 819.913 6.6768C832.435 7.66488 844.948 8.76554 857.459 9.98149C866.395 10.85 875.331 11.7771 884.268 12.7637C900.354 14.5397 916.447 16.5083 932.561 18.6739C934.351 18.9145 936.142 19.1579 937.933 19.4034C955.842 21.8582 973.78 24.5572 991.769 27.5059C1000.12 28.8752 1009.11 30.5359 1018.18 32.6153C1019 32.8043 1019.83 32.9964 1020.65 33.1924C1022.3 33.5845 1023.95 33.9909 1025.6 34.4122C1026.43 34.6228 1027.25 34.8375 1028.08 35.0557C1039.6 38.111 1050.92 41.9192 1060.92 46.7422C1061.63 47.0867 1062.34 47.4371 1063.04 47.792C1064.44 48.5018 1065.81 49.2327 1067.14 49.9854C1068.89 50.9655 1070.64 51.9359 1072.4 52.8975C1074.16 53.859 1075.92 54.8123 1077.7 55.7559C1078.59 56.2278 1079.48 56.6966 1080.37 57.1641C1090.18 62.3063 1100.22 67.1863 1110.44 71.8477C1111.37 72.2714 1112.3 72.6932 1113.23 73.1133C1120.68 76.4749 1128.23 79.7239 1135.84 82.876C1137.74 83.664 1139.65 84.4455 1141.56 85.2217C1145.39 86.7742 1149.23 88.3039 1153.08 89.8125C1161.75 93.2073 1170.48 96.4969 1179.25 99.7051C1183.15 101.131 1187.05 102.542 1190.96 103.938C1194.87 105.334 1198.78 106.716 1202.7 108.086C1214.44 112.197 1226.2 116.202 1237.9 120.16C1241.8 121.479 1245.69 122.794 1249.57 124.105C1253.67 125.488 1257.76 126.867 1261.83 128.246C1265.9 129.625 1269.96 131.004 1274.01 132.383C1282.09 135.141 1290.11 137.906 1298.04 140.696C1299.57 141.234 1301.1 141.766 1302.65 142.294C1304.19 142.822 1305.74 143.345 1307.29 143.864C1316.62 146.979 1326.16 149.949 1335.75 152.935C1360.17 160.54 1384.93 168.25 1407.39 178.713C1407.44 178.735 1407.49 178.757 1407.54 178.779C1409.71 179.794 1412.13 180.814 1414.67 181.88C1418.07 183.313 1421.67 184.832 1425.15 186.536C1425.81 186.864 1426.48 187.197 1427.13 187.539C1427.42 187.69 1427.71 187.844 1428 187.998V188H0.250977C2.73235 185.91 5.07326 183.822 7.19141 181.811C7.8197 181.214 8.42943 180.624 9.0166 180.043C9.13723 179.924 9.25719 179.804 9.37598 179.686C10.1535 178.909 10.8913 178.148 11.584 177.409C11.8782 177.095 12.1638 176.784 12.4414 176.479C13.1156 175.736 13.7412 175.019 14.3096 174.331C14.4705 174.136 14.6274 173.944 14.7793 173.754C15.0651 173.397 15.3575 173.041 15.6543 172.687C16.2198 172.011 16.8052 171.341 17.4092 170.677C17.458 170.623 17.5066 170.568 17.5557 170.515C17.8369 170.207 18.1229 169.901 18.4121 169.596C18.4404 169.566 18.4687 169.536 18.4971 169.506C18.6552 169.34 18.8171 169.175 18.9775 169.01C19.1755 168.805 19.3738 168.6 19.5752 168.397C19.7027 168.268 19.8321 168.14 19.9609 168.012C20.1698 167.804 20.3794 167.595 20.5918 167.388C20.7663 167.218 20.9433 167.049 21.1201 166.88C21.3049 166.703 21.4904 166.526 21.6777 166.35C21.8458 166.192 22.0164 166.035 22.1865 165.878C22.3875 165.692 22.5892 165.505 22.793 165.32C22.9542 165.174 23.1174 165.029 23.2803 164.883C23.4958 164.69 23.7122 164.497 23.9307 164.305C24.0976 164.158 24.266 164.012 24.4346 163.866C24.6505 163.679 24.8673 163.492 25.0859 163.306C25.2631 163.155 25.4422 163.006 25.6211 162.856C25.8399 162.672 26.0599 162.488 26.2812 162.306C26.4406 162.174 26.6011 162.043 26.7617 161.912C27.0211 161.701 27.2822 161.489 27.5449 161.279C27.6903 161.163 27.837 161.048 27.9834 160.932C28.2192 160.745 28.4559 160.558 28.6943 160.372C28.8986 160.213 29.1045 160.055 29.3105 159.897C29.5437 159.717 29.7782 159.538 30.0137 159.36C30.1758 159.238 30.3388 159.115 30.502 158.993C30.7628 158.798 31.0255 158.603 31.2891 158.409C31.4706 158.276 31.6531 158.142 31.8359 158.009C32.0838 157.828 32.3329 157.648 32.583 157.469C32.7563 157.344 32.9301 157.22 33.1045 157.096C33.3745 156.904 33.6464 156.713 33.9189 156.523C34.1123 156.387 34.3064 156.252 34.501 156.117C34.7262 155.961 34.9529 155.806 35.1797 155.651C35.4132 155.492 35.6477 155.333 35.8828 155.174C36.1003 155.027 36.3192 154.881 36.5381 154.735C36.7672 154.583 36.997 154.429 37.2275 154.277C37.4637 154.122 37.7009 153.966 37.9385 153.812C38.156 153.67 38.374 153.528 38.5928 153.387C38.8629 153.213 39.1343 153.039 39.4062 152.866C39.5901 152.749 39.7744 152.632 39.959 152.516C40.243 152.337 40.5286 152.158 40.8145 151.981C41.0147 151.856 41.2158 151.731 41.417 151.607C41.7055 151.43 41.9949 151.252 42.2852 151.075C42.4495 150.975 42.6144 150.875 42.7793 150.775C43.0697 150.6 43.3613 150.425 43.6533 150.251C43.8875 150.111 44.1222 149.971 44.3574 149.832C44.5258 149.733 44.6954 149.634 44.8643 149.535C45.165 149.359 45.4663 149.182 45.7686 149.007C46.0923 148.819 46.4177 148.633 46.7432 148.447C46.8945 148.361 47.0456 148.273 47.1973 148.187C47.488 148.021 47.7803 147.857 48.0723 147.693C48.2832 147.575 48.4945 147.456 48.7061 147.338C49.1385 147.097 49.5729 146.858 50.0078 146.619C50.0625 146.589 50.1171 146.558 50.1719 146.528C50.4034 146.402 50.636 146.276 50.8682 146.15C51.6339 145.735 52.4027 145.322 53.1748 144.915C54.2484 144.349 55.3287 143.791 56.4121 143.24C57.0932 142.894 57.7759 142.55 58.46 142.21C59.7747 141.556 61.0942 140.913 62.416 140.282C62.5225 140.231 62.6298 140.182 62.7363 140.131C63.1456 139.936 63.5553 139.742 63.9648 139.55C64.2765 139.403 64.5886 139.257 64.9004 139.112C65.0334 139.05 65.1668 138.988 65.2998 138.927C65.6115 138.782 65.9236 138.638 66.2354 138.495C66.5045 138.371 66.7738 138.248 67.043 138.125C67.2169 138.046 67.3916 137.968 67.5654 137.889C67.9053 137.735 68.2453 137.58 68.585 137.428C68.8095 137.327 69.0344 137.226 69.2588 137.126C69.49 137.023 69.7211 136.919 69.9521 136.816C70.2526 136.683 70.5533 136.55 70.8535 136.418C71.1576 136.284 71.4619 136.151 71.7656 136.019C71.8417 135.985 71.9181 135.952 71.9941 135.919C72.9119 135.519 73.828 135.125 74.7412 134.736C74.9648 134.641 75.1889 134.548 75.4121 134.453C75.5996 134.374 75.7873 134.295 75.9746 134.216C76.806 133.866 77.6354 133.522 78.4609 133.182C79.0017 132.959 79.5423 132.74 80.0801 132.522C80.5251 132.341 80.9684 132.158 81.4111 131.981C81.9937 131.746 82.5751 131.516 83.1533 131.287C83.5733 131.121 83.9917 130.954 84.4092 130.79C84.9692 130.57 85.5279 130.355 86.083 130.14C86.5026 129.977 86.9203 129.814 87.3369 129.654C88.053 129.38 88.7652 129.11 89.4717 128.844C89.6858 128.763 89.8991 128.681 90.1123 128.601C90.7755 128.352 91.4353 128.109 92.0889 127.867C92.4158 127.746 92.741 127.624 93.0654 127.505C93.7256 127.263 94.3814 127.026 95.0303 126.791C95.2848 126.699 95.5383 126.607 95.791 126.516C97.6073 125.863 99.3759 125.239 101.087 124.648L103.645 123.772C103.708 123.75 103.772 123.728 103.836 123.706C108.211 122.221 112.594 120.77 116.98 119.345C117.728 119.102 118.475 118.858 119.223 118.617C120.159 118.315 121.096 118.016 122.033 117.717C122.874 117.448 123.714 117.179 124.555 116.912C125.429 116.635 126.304 116.36 127.179 116.085C128.038 115.815 128.897 115.545 129.757 115.276C130.673 114.991 131.59 114.706 132.507 114.423C133.343 114.164 134.18 113.905 135.017 113.648C135.956 113.36 136.896 113.073 137.836 112.787C138.634 112.544 139.432 112.302 140.229 112.061C141.153 111.781 142.078 111.504 143.002 111.227C143.855 110.971 144.708 110.716 145.561 110.462C146.499 110.183 147.439 109.904 148.378 109.627C149.137 109.403 149.896 109.18 150.655 108.957C151.618 108.675 152.58 108.393 153.543 108.112C154.457 107.846 155.371 107.582 156.285 107.318C157.094 107.085 157.904 106.85 158.713 106.618C159.724 106.328 160.736 106.04 161.748 105.752C162.47 105.546 163.192 105.34 163.914 105.136C164.944 104.844 165.975 104.555 167.005 104.266C167.797 104.043 168.589 103.821 169.381 103.6C170.516 103.283 171.651 102.968 172.786 102.653C173.329 102.503 173.872 102.352 174.415 102.202C175.776 101.827 177.137 101.454 178.498 101.082C178.956 100.957 179.413 100.831 179.871 100.706C180.493 100.537 181.117 100.369 181.739 100.2C183.948 99.6013 186.159 99.0067 188.369 98.4161C189.08 98.2261 189.791 98.0349 190.502 97.8457C190.87 97.7478 191.239 97.6515 191.607 97.5538C193.049 97.171 194.492 96.7888 195.935 96.4092C196.438 96.2767 196.943 96.1449 197.446 96.0127C198.628 95.7028 199.809 95.3939 200.991 95.086C201.888 94.8524 202.785 94.6202 203.682 94.3877C204.541 94.1649 205.401 93.9417 206.261 93.7198C207.363 93.4353 208.466 93.1521 209.568 92.8692C210.156 92.7184 210.744 92.5674 211.331 92.417C212.358 92.1543 213.385 91.8914 214.412 91.6299C215.252 91.416 216.093 91.2024 216.934 90.9893C217.839 90.7596 218.746 90.5306 219.651 90.3018C220.556 90.0733 221.461 89.8449 222.366 89.6172C223.273 89.3892 224.179 89.1619 225.086 88.9346C225.841 88.7452 226.597 88.5551 227.353 88.3663C228.498 88.0798 229.645 87.7941 230.791 87.5088C231.266 87.3907 231.741 87.2723 232.216 87.1543C233.234 86.9015 234.252 86.6495 235.27 86.3975C237.36 85.88 239.451 85.366 241.541 84.8516C243.086 84.4714 244.631 84.0897 246.177 83.711C249.314 82.9421 252.453 82.1771 255.591 81.4131C255.931 81.3304 256.271 81.2468 256.61 81.1641C260.197 80.2916 263.784 79.4214 267.37 78.5528L278.348 75.8965C326.43 64.2692 374.463 52.6541 421.815 38.085C427.24 36.4161 432.677 34.5671 438.125 32.628C440.849 31.6583 443.576 30.6663 446.305 29.6622C449.033 28.6583 451.764 27.6423 454.496 26.626C458.568 25.1114 462.646 23.5954 466.725 22.1143C466.98 22.0217 467.235 21.9302 467.49 21.8379C468.277 21.5533 469.063 21.2689 469.85 20.9873C470.077 20.906 470.305 20.8253 470.532 20.7442C471.308 20.4674 472.084 20.1922 472.86 19.919C473.251 19.7816 473.642 19.6453 474.032 19.5088C474.608 19.3075 475.185 19.1062 475.761 18.9073C476.252 18.7376 476.745 18.5702 477.236 18.4024C477.805 18.2081 478.374 18.0139 478.943 17.8223C479.317 17.6964 479.692 17.572 480.066 17.4473C480.706 17.234 481.346 17.021 481.985 16.8116C482.74 16.5646 483.495 16.3204 484.249 16.0791C484.595 15.9684 484.942 15.8576 485.288 15.7481C485.382 15.7183 485.477 15.688 485.571 15.6582C485.894 15.5565 486.218 15.4561 486.541 15.3555C486.778 15.2817 487.015 15.207 487.252 15.1338C488.133 14.8618 489.014 14.5947 489.896 14.3321C490.005 14.2995 490.114 14.2668 490.224 14.2344C490.608 14.1203 490.993 14.0078 491.378 13.8956C491.506 13.8582 491.634 13.8204 491.762 13.7832C492.12 13.6793 492.479 13.5769 492.837 13.4747C493.008 13.4258 493.179 13.3757 493.351 13.3272C493.754 13.2129 494.159 13.1003 494.562 12.9883C494.64 12.9669 494.718 12.9453 494.795 12.9239C496.251 12.5216 497.707 12.1342 499.163 11.7637C499.264 11.738 499.366 11.7112 499.467 11.6856C499.71 11.6242 499.953 11.5654 500.196 11.5049C500.97 11.3122 501.744 11.1223 502.519 10.9395L504.068 10.5811C504.243 10.5415 504.418 10.5032 504.592 10.4639C510.247 9.18733 515.837 8.06451 521.381 7.08012C522.095 6.95325 522.809 6.82848 523.522 6.7061C527.086 6.09445 530.632 5.53858 534.165 5.03325C535.578 4.83108 536.99 4.6375 538.399 4.45122C539.809 4.26495 541.217 4.08612 542.623 3.91508C544.732 3.65855 546.838 3.41847 548.942 3.19438C556.658 2.37268 564.345 1.76171 572.061 1.30766C572.762 1.26638 573.464 1.22628 574.166 1.18754C579.079 0.916488 584.005 0.707812 588.959 0.545943C590.374 0.499692 591.792 0.45681 593.212 0.418013C596.052 0.340426 598.903 0.277282 601.767 0.225631C604.63 0.173965 607.507 0.133493 610.399 0.102584C613.291 0.0716904 616.199 0.0505307 619.124 0.0352009C626.439 -0.00314645 633.868 -0.00124664 641.452 0.0010212C643.255 0.00156037 645.067 0.00199777 646.889 0.00199777Z" fill="black"/>
</svg>
