<svg
  width="1432"
  height="1125"
  viewBox="0 0 1432 1125"
  fill="none"
  xmlns="http://www.w3.org/2000/svg"
>
  <path
    d="M650.843 0.00195312C659.958 0.00195312 669.052 0.0549947 678.126 0.161133C679.941 0.182357 681.754 0.204963 683.567 0.230469C685.381 0.255978 687.193 0.283673 689.005 0.313477C690.817 0.343282 692.628 0.376043 694.438 0.410156L699.867 0.518555C723.384 1.01814 746.784 1.88291 770.115 3.12695C775.499 3.41403 780.88 3.72123 786.257 4.04883C798.804 4.81325 811.334 5.68868 823.855 6.67676C836.377 7.66483 848.888 8.7655 861.398 9.98145C866.76 10.5026 872.121 11.0449 877.482 11.6084C881.057 11.9841 884.631 12.37 888.206 12.7646C891.781 13.1593 895.355 13.5628 898.931 13.9766C931.109 17.7001 963.323 22.198 995.7 27.5059C997.219 27.7548 998.759 28.0132 1000.32 28.2822C1002.65 28.6857 1005.03 29.1126 1007.43 29.5654C1014.64 30.924 1022.11 32.5163 1029.53 34.4121C1030.36 34.6228 1031.18 34.8374 1032 35.0557C1036.94 36.365 1041.84 37.8134 1046.62 39.4199C1047.02 39.5538 1047.41 39.6881 1047.81 39.8242C1049.4 40.3686 1050.97 40.9309 1052.52 41.5117C1052.91 41.657 1053.29 41.8035 1053.68 41.9512C1055.61 42.689 1057.51 43.4559 1059.37 44.2539C1060.49 44.7327 1061.59 45.2232 1062.68 45.7246C1063.41 46.0588 1064.13 46.3977 1064.84 46.7422C1065.56 47.0867 1066.26 47.437 1066.96 47.792C1068.36 48.5018 1069.73 49.2326 1071.07 49.9854C1071.94 50.4754 1072.81 50.9629 1073.69 51.4482C1074.57 51.9336 1075.44 52.4166 1076.32 52.8975C1082.48 56.2631 1088.74 59.5174 1095.08 62.6719C1096.9 63.5732 1098.72 64.4663 1100.54 65.3516C1113.33 71.5484 1126.44 77.3598 1139.76 82.876C1140.71 83.27 1141.67 83.6617 1142.62 84.0527C1144.53 84.8348 1146.44 85.6113 1148.35 86.3818C1151.23 87.5378 1154.11 88.6809 1157 89.8125C1158.92 90.5668 1160.85 91.3164 1162.79 92.0605C1163.75 92.4328 1164.72 92.804 1165.69 93.1738C1166.65 93.5435 1167.62 93.912 1168.59 94.2793C1179.25 98.3198 1189.99 102.218 1200.75 106.021C1202.7 106.712 1204.66 107.401 1206.62 108.086C1212.49 110.142 1218.36 112.171 1224.23 114.181C1234.01 117.531 1243.78 120.827 1253.49 124.104C1257.58 125.488 1261.67 126.867 1265.74 128.246C1269.82 129.625 1273.88 131.004 1277.92 132.383C1286.01 135.141 1294.02 137.906 1301.95 140.696C1306.53 142.31 1311.19 143.875 1315.88 145.41C1318.66 146.319 1321.46 147.216 1324.27 148.108C1329.36 149.728 1334.5 151.33 1339.65 152.935C1347.3 155.316 1354.98 157.708 1362.62 160.191C1364.91 160.937 1367.19 161.69 1369.47 162.454C1375.55 164.491 1381.58 166.601 1387.53 168.828C1389.3 169.494 1391.07 170.171 1392.83 170.858C1393.28 171.033 1393.73 171.207 1394.17 171.384C1396.38 172.254 1398.56 173.143 1400.74 174.052C1404.3 175.546 1407.83 177.096 1411.29 178.712C1411.34 178.735 1411.39 178.757 1411.44 178.779C1413.07 179.541 1414.84 180.304 1416.69 181.088C1417.31 181.349 1417.93 181.613 1418.57 181.88C1421.97 183.313 1425.57 184.832 1429.05 186.536C1429.42 186.719 1429.79 186.902 1430.16 187.089C1430.45 187.237 1430.75 187.388 1431.04 187.539C1431.36 187.708 1431.68 187.879 1432 188.051V1055.76C1431.87 1055.77 1431.75 1055.79 1431.62 1055.8C1431.42 1055.83 1431.23 1055.85 1431.03 1055.87C1430.84 1055.89 1430.66 1055.91 1430.47 1055.93C1430.24 1055.96 1430.01 1055.98 1429.77 1056C1429.62 1056.02 1429.47 1056.03 1429.31 1056.05C1429.12 1056.07 1428.93 1056.08 1428.73 1056.1C1428.44 1056.13 1428.15 1056.15 1427.86 1056.18C1427.14 1056.23 1426.42 1056.29 1425.68 1056.33C1425.51 1056.35 1425.34 1056.36 1425.17 1056.37C1424.92 1056.38 1424.67 1056.4 1424.42 1056.41C1424.23 1056.42 1424.04 1056.43 1423.85 1056.44C1423.62 1056.45 1423.4 1056.46 1423.17 1056.48C1422.98 1056.48 1422.8 1056.49 1422.61 1056.5C1422.35 1056.51 1422.09 1056.52 1421.83 1056.53C1421.59 1056.54 1421.35 1056.55 1421.11 1056.56C1420.96 1056.57 1420.81 1056.57 1420.66 1056.58C1420.41 1056.59 1420.15 1056.59 1419.89 1056.6C1419.65 1056.61 1419.4 1056.61 1419.15 1056.62C1418.97 1056.63 1418.8 1056.63 1418.62 1056.63C1418.36 1056.64 1418.11 1056.65 1417.85 1056.65C1417.63 1056.65 1417.4 1056.66 1417.17 1056.66C1417.04 1056.66 1416.91 1056.67 1416.77 1056.67C1416 1056.68 1415.21 1056.69 1414.42 1056.69C1414.29 1056.69 1414.17 1056.69 1414.04 1056.69C1413.25 1056.69 1412.45 1056.69 1411.65 1056.69C1409.73 1056.68 1407.77 1056.65 1405.79 1056.6C1405.69 1056.6 1405.59 1056.59 1405.48 1056.59C1404.61 1056.57 1403.74 1056.54 1402.86 1056.52C1402.58 1056.51 1402.31 1056.5 1402.04 1056.49C1401.33 1056.46 1400.62 1056.44 1399.91 1056.41C1399.51 1056.39 1399.1 1056.38 1398.69 1056.36C1398.14 1056.34 1397.59 1056.31 1397.04 1056.29C1396.49 1056.27 1395.94 1056.24 1395.4 1056.21C1394.99 1056.19 1394.58 1056.17 1394.16 1056.15C1393.63 1056.13 1393.09 1056.1 1392.56 1056.07C1391.96 1056.04 1391.37 1056.01 1390.77 1055.97C1390.45 1055.96 1390.13 1055.94 1389.81 1055.92C1389.16 1055.88 1388.52 1055.84 1387.87 1055.8C1387.45 1055.78 1387.02 1055.75 1386.59 1055.73C1386.05 1055.69 1385.51 1055.66 1384.97 1055.62C1384.51 1055.59 1384.06 1055.57 1383.61 1055.54C1383.03 1055.5 1382.45 1055.46 1381.87 1055.42C1381.45 1055.39 1381.03 1055.36 1380.6 1055.33C1380.33 1055.31 1380.05 1055.29 1379.77 1055.28C1378.08 1055.16 1376.41 1055.04 1374.75 1054.91C1372.84 1054.77 1370.95 1054.63 1369.09 1054.49L1363.43 1054.04C1363.23 1054.03 1363.04 1054.02 1362.85 1054C1356.74 1053.52 1351.18 1053.09 1346.57 1052.82C1344.35 1052.68 1342.35 1052.59 1340.61 1052.54C1339.83 1052.52 1339.12 1052.51 1338.45 1052.51H866.115C859.542 1052.51 853.008 1052.59 846.506 1052.75C845.577 1052.78 844.648 1052.8 843.721 1052.83C838.156 1052.98 832.614 1053.19 827.092 1053.45C826.171 1053.49 825.251 1053.54 824.331 1053.58C821.623 1053.72 818.919 1053.86 816.219 1054.02C816.064 1054.03 815.909 1054.04 815.754 1054.05C806.696 1054.58 797.683 1055.23 788.697 1055.98C785.061 1056.28 781.43 1056.6 777.802 1056.94C774.173 1057.27 770.548 1057.62 766.925 1057.98C765.113 1058.16 763.302 1058.34 761.491 1058.53C752.438 1059.46 743.393 1060.46 734.34 1061.51C719.855 1063.19 705.346 1064.98 690.739 1066.79L690.729 1066.8L690.706 1066.8C684.242 1067.6 677.758 1068.4 671.249 1069.2C667.994 1069.6 664.733 1070 661.464 1070.39C658.195 1070.78 654.92 1071.17 651.636 1071.56L645.333 1072.31C637.616 1073.23 629.893 1074.18 622.166 1075.15C564.663 1082.4 506.918 1090.96 449.321 1099.5L449.312 1099.51L449.283 1099.51L427.905 1102.68C421.525 1103.62 415.146 1104.56 408.771 1105.5C400.089 1106.78 391.413 1108.05 382.743 1109.31C380.873 1109.58 379.003 1109.85 377.133 1110.12C372.72 1110.75 368.309 1111.39 363.9 1112.02C360.316 1112.53 356.735 1113.02 353.156 1113.49C352.971 1113.51 352.786 1113.54 352.602 1113.56C350.193 1113.88 347.785 1114.18 345.379 1114.48C345.305 1114.49 345.232 1114.49 345.158 1114.5C344.314 1114.61 343.469 1114.71 342.625 1114.81C342.195 1114.86 341.765 1114.91 341.335 1114.96C337.962 1115.36 334.592 1115.75 331.224 1116.11C330.845 1116.15 330.467 1116.19 330.089 1116.23C329.191 1116.33 328.293 1116.42 327.395 1116.52C327.086 1116.55 326.777 1116.58 326.469 1116.62C325.447 1116.72 324.426 1116.82 323.404 1116.93C323.181 1116.95 322.958 1116.97 322.735 1117C321.659 1117.1 320.584 1117.21 319.508 1117.31C319.361 1117.33 319.214 1117.34 319.067 1117.36C317.979 1117.46 316.891 1117.56 315.804 1117.67C315.636 1117.68 315.468 1117.7 315.3 1117.71C314.568 1117.78 313.837 1117.85 313.105 1117.92C312.481 1117.97 311.857 1118.03 311.232 1118.08C310.664 1118.14 310.095 1118.19 309.526 1118.24C308.903 1118.29 308.28 1118.35 307.657 1118.4C306.624 1118.49 305.591 1118.58 304.558 1118.66C304.439 1118.67 304.321 1118.68 304.203 1118.69C303.322 1118.76 302.441 1118.84 301.561 1118.91C301.096 1118.95 300.632 1118.98 300.168 1119.02C299.283 1119.09 298.398 1119.16 297.514 1119.23C297.221 1119.25 296.928 1119.27 296.635 1119.3C295.755 1119.36 294.875 1119.43 293.995 1119.5C293.584 1119.53 293.172 1119.56 292.761 1119.59C292 1119.64 291.24 1119.7 290.479 1119.75C289.998 1119.79 289.517 1119.82 289.036 1119.85C288.291 1119.91 287.547 1119.96 286.802 1120.01C286.25 1120.05 285.698 1120.08 285.146 1120.12C284.404 1120.17 283.662 1120.22 282.92 1120.27C282.492 1120.3 282.065 1120.33 281.638 1120.35C280.808 1120.41 279.978 1120.46 279.148 1120.51C278.72 1120.54 278.292 1120.57 277.864 1120.59C277.016 1120.64 276.168 1120.7 275.32 1120.75C274.96 1120.77 274.6 1120.79 274.24 1120.81C273.189 1120.87 272.139 1120.93 271.088 1120.99C270.982 1121 270.876 1121 270.77 1121.01C269.879 1121.06 268.988 1121.11 268.097 1121.16C267.516 1121.19 266.935 1121.22 266.354 1121.25C265.735 1121.28 265.116 1121.32 264.497 1121.35C264.007 1121.38 263.516 1121.4 263.025 1121.42C262.041 1121.47 261.057 1121.52 260.073 1121.57C259.893 1121.58 259.713 1121.59 259.533 1121.6C258.479 1121.65 257.424 1121.7 256.369 1121.75C256.193 1121.76 256.017 1121.77 255.841 1121.77C254.831 1121.82 253.821 1121.87 252.811 1121.91C252.499 1121.92 252.187 1121.94 251.875 1121.95C251.069 1121.99 250.263 1122.02 249.457 1122.05C248.919 1122.08 248.382 1122.1 247.844 1122.12C247.195 1122.15 246.546 1122.17 245.897 1122.2C245.276 1122.22 244.654 1122.25 244.032 1122.27C243.296 1122.3 242.56 1122.33 241.824 1122.36C241.493 1122.37 241.163 1122.38 240.832 1122.39C239.766 1122.43 238.7 1122.47 237.634 1122.51C237.561 1122.51 237.487 1122.51 237.414 1122.51C233.894 1122.64 230.373 1122.75 226.852 1122.85C226.08 1122.87 225.309 1122.89 224.537 1122.91C222.861 1122.96 221.185 1123.01 219.509 1123.05C218.356 1123.08 217.202 1123.1 216.049 1123.13C214.814 1123.16 213.578 1123.19 212.343 1123.22C211.094 1123.25 209.846 1123.27 208.597 1123.29C207.248 1123.32 205.898 1123.35 204.549 1123.38C203.433 1123.4 202.318 1123.41 201.202 1123.43C199.916 1123.45 198.629 1123.48 197.343 1123.5C195.869 1123.52 194.395 1123.54 192.921 1123.56C191.877 1123.58 190.834 1123.59 189.79 1123.6C188.453 1123.62 187.115 1123.64 185.777 1123.65C184.595 1123.66 183.412 1123.68 182.229 1123.69C181.323 1123.7 180.418 1123.71 179.513 1123.72C175.319 1123.76 171.121 1123.79 166.92 1123.82C166.789 1123.82 166.658 1123.82 166.526 1123.82C162.699 1123.84 158.868 1123.86 155.033 1123.87C144.028 1123.91 132.992 1123.92 121.917 1123.92C117.872 1123.92 113.724 1123.97 109.495 1124.06C106.571 1124.11 103.609 1124.19 100.616 1124.26C99.2801 1124.3 97.9377 1124.33 96.5898 1124.36C92.5472 1124.47 88.4544 1124.57 84.3301 1124.66C82.8055 1124.69 81.2766 1124.72 79.7441 1124.74C79.145 1124.75 78.5454 1124.76 77.9453 1124.77C77.4186 1124.78 76.8916 1124.78 76.3643 1124.79C75.806 1124.8 75.2474 1124.8 74.6885 1124.81C74.125 1124.81 73.5612 1124.82 72.9971 1124.82C72.3932 1124.83 71.789 1124.83 71.1846 1124.83C70.674 1124.84 70.1633 1124.84 69.6523 1124.84C69.0396 1124.84 68.4266 1124.84 67.8135 1124.84C67.256 1124.84 66.6984 1124.84 66.1406 1124.84C65.6052 1124.83 65.0697 1124.83 64.5342 1124.83C63.9073 1124.82 63.2803 1124.82 62.6533 1124.81C62.1367 1124.8 61.6201 1124.8 61.1035 1124.79C60.4566 1124.78 59.8098 1124.77 59.1631 1124.76C58.6087 1124.75 58.0542 1124.74 57.5 1124.72C57.3642 1124.72 57.2285 1124.72 57.0928 1124.71C56.1262 1124.69 55.16 1124.66 54.1943 1124.63C54.068 1124.63 53.9417 1124.63 53.8154 1124.62C52.7387 1124.59 51.6628 1124.55 50.5879 1124.5C49.5562 1124.46 48.5255 1124.41 47.4961 1124.36C47.4267 1124.35 47.3574 1124.35 47.2881 1124.35C46.8148 1124.32 46.3418 1124.3 45.8691 1124.27C45.6021 1124.25 45.3352 1124.24 45.0684 1124.22C44.7678 1124.2 44.4673 1124.19 44.167 1124.17C43.7989 1124.14 43.4311 1124.12 43.0635 1124.09C42.9056 1124.08 42.7477 1124.07 42.5898 1124.06C42.27 1124.04 41.9504 1124.02 41.6309 1124C41.3492 1123.98 41.0676 1123.96 40.7861 1123.93C40.4979 1123.91 40.2098 1123.89 39.9219 1123.87C39.6548 1123.85 39.3879 1123.83 39.1211 1123.8C38.8622 1123.78 38.6034 1123.76 38.3447 1123.74C38.0252 1123.71 37.7058 1123.69 37.3867 1123.66C37.149 1123.64 36.9113 1123.62 36.6738 1123.59C36.3614 1123.57 36.0493 1123.54 35.7373 1123.51C35.4676 1123.48 35.1981 1123.46 34.9287 1123.43C34.6811 1123.41 34.4338 1123.38 34.1865 1123.36C33.8614 1123.32 33.5365 1123.29 33.2119 1123.26C32.9594 1123.23 32.7072 1123.2 32.4551 1123.17C32.1942 1123.15 31.9334 1123.12 31.6729 1123.09C31.2769 1123.04 30.8815 1123 30.4863 1122.95C30.3255 1122.93 30.1646 1122.91 30.0039 1122.89C29.4849 1122.83 28.9667 1122.77 28.4492 1122.7C28.4137 1122.7 28.3783 1122.69 28.3428 1122.69C27.7976 1122.62 27.2533 1122.55 26.71 1122.47C26.3622 1122.43 26.015 1122.38 25.668 1122.33C25.4866 1122.3 25.3052 1122.28 25.124 1122.25C24.8079 1122.2 24.4922 1122.16 24.1768 1122.11C23.9348 1122.07 23.6928 1122.04 23.4512 1122C23.1771 1121.96 22.9034 1121.92 22.6299 1121.87C22.3594 1121.83 22.0893 1121.79 21.8193 1121.74C21.5446 1121.7 21.2702 1121.65 20.9961 1121.61C20.7367 1121.56 20.4776 1121.52 20.2188 1121.47C19.9333 1121.43 19.6481 1121.38 19.3633 1121.33C19.1134 1121.28 18.8637 1121.24 18.6143 1121.19C18.3076 1121.14 18.0012 1121.08 17.6953 1121.02C17.4747 1120.98 17.2544 1120.94 17.0342 1120.9C16.7585 1120.84 16.483 1120.79 16.208 1120.74C15.8865 1120.68 15.5657 1120.61 15.2451 1120.54C15.0402 1120.5 14.8354 1120.46 14.6309 1120.42C14.3326 1120.36 14.0348 1120.3 13.7373 1120.23C13.4887 1120.18 13.2402 1120.13 12.9922 1120.07C12.689 1120.01 12.3863 1119.94 12.084 1119.87C11.8601 1119.82 11.6364 1119.77 11.4131 1119.72C11.1555 1119.66 10.8985 1119.6 10.6416 1119.54C10.364 1119.48 10.0864 1119.41 9.80957 1119.35C9.60051 1119.3 9.39221 1119.24 9.18359 1119.19C8.61154 1119.05 8.04125 1118.91 7.47266 1118.76C7.23063 1118.7 6.98845 1118.64 6.74707 1118.57C6.55137 1118.52 6.35641 1118.47 6.16113 1118.42C5.83843 1118.33 5.51585 1118.24 5.19434 1118.15C4.93731 1118.08 4.68106 1118.01 4.4248 1117.94C4.18502 1117.87 3.94516 1117.8 3.70605 1117.73C3.37548 1117.64 3.04604 1117.54 2.7168 1117.44C2.55297 1117.39 2.38908 1117.34 2.22559 1117.29C1.88987 1117.19 1.555 1117.09 1.2207 1116.99C1.03689 1116.93 0.853305 1116.87 0.669922 1116.81C0.446102 1116.74 0.223117 1116.67 0 1116.6V191.471C3.90226 188.383 7.58975 185.205 10.793 182.188C11.2935 181.716 11.7819 181.248 12.2578 180.785C13.4473 179.629 14.5569 178.503 15.5703 177.422C16.381 176.557 17.1309 175.722 17.8105 174.924C18.1504 174.524 18.4724 174.134 18.7764 173.754C19.2068 173.216 19.6493 172.681 20.1045 172.149C20.1753 172.067 20.247 171.985 20.3184 171.902C20.4114 171.795 20.5046 171.687 20.5986 171.58C20.8553 171.287 21.116 170.996 21.3799 170.705C21.4381 170.641 21.4962 170.577 21.5547 170.513C21.8353 170.206 22.1198 169.9 22.4082 169.596C22.4365 169.566 22.4648 169.536 22.4932 169.506C22.6514 169.339 22.8131 169.176 22.9736 169.01C23.1716 168.805 23.3698 168.6 23.5713 168.396C23.683 168.284 23.7964 168.172 23.9092 168.06C24.1437 167.826 24.3792 167.591 24.6182 167.358C24.7552 167.225 24.8947 167.094 25.0332 166.961C25.2575 166.746 25.482 166.529 25.71 166.315C25.8451 166.189 25.9827 166.064 26.1191 165.938C26.3426 165.73 26.5661 165.522 26.793 165.316C26.9427 165.18 27.0939 165.046 27.2451 164.91C27.4834 164.697 27.723 164.484 27.9648 164.271C28.0999 164.153 28.2369 164.036 28.373 163.918C28.6104 163.712 28.8482 163.505 29.0889 163.301C29.264 163.152 29.4404 163.004 29.6172 162.855C29.8361 162.672 30.0559 162.488 30.2773 162.306C30.4439 162.168 30.6113 162.031 30.7793 161.895C31.0165 161.701 31.2551 161.509 31.4951 161.316C31.6695 161.177 31.8447 161.037 32.0205 160.898C32.2588 160.71 32.4984 160.522 32.7393 160.335C32.9028 160.208 33.0668 160.081 33.2314 159.954C33.4943 159.752 33.7587 159.551 34.0244 159.35C34.1876 159.226 34.3514 159.103 34.5156 158.98C34.759 158.798 35.0033 158.617 35.249 158.436C35.4495 158.288 35.6505 158.14 35.8525 157.993C36.0859 157.823 36.3204 157.654 36.5557 157.485C36.754 157.343 36.9526 157.2 37.1523 157.059C37.3802 156.897 37.6092 156.736 37.8389 156.575C38.0758 156.409 38.3139 156.244 38.5527 156.079C38.7593 155.936 38.9669 155.794 39.1748 155.652C39.3952 155.502 39.616 155.351 39.8379 155.201C40.079 155.038 40.3207 154.876 40.5635 154.714C40.7825 154.568 41.0023 154.423 41.2227 154.277C41.4589 154.122 41.6959 153.966 41.9336 153.812C42.1512 153.67 42.3691 153.528 42.5879 153.387C42.8581 153.213 43.1294 153.039 43.4014 152.866C43.5853 152.749 43.7694 152.632 43.9541 152.516C44.2592 152.323 44.5658 152.132 44.873 151.941C45.0363 151.84 45.1994 151.738 45.3633 151.637C45.6566 151.456 45.9509 151.275 46.2461 151.096C46.4366 150.98 46.6271 150.864 46.8184 150.748C47.1006 150.578 47.3842 150.409 47.668 150.239C47.878 150.114 48.0879 149.988 48.2988 149.863C48.5241 149.73 48.7504 149.598 48.9766 149.466C49.2382 149.313 49.4999 149.159 49.7627 149.007C49.988 148.876 50.2143 148.747 50.4404 148.617C50.707 148.464 50.9735 148.31 51.2412 148.158C51.6648 147.918 52.0904 147.679 52.5166 147.441C52.5606 147.417 52.6044 147.392 52.6484 147.367C52.9075 147.223 53.1678 147.08 53.4277 146.937C54.6659 146.253 55.9131 145.578 57.1689 144.915C58.6693 144.123 60.1808 143.347 61.6992 142.586C61.8959 142.487 62.0932 142.39 62.29 142.292C63.657 141.611 65.0286 140.941 66.4033 140.285C66.5597 140.211 66.7166 140.137 66.873 140.062C67.2335 139.891 67.5943 139.721 67.9551 139.552C68.2265 139.424 68.498 139.297 68.7695 139.171C68.9646 139.08 69.1594 138.989 69.3545 138.898C69.6776 138.749 70.0011 138.6 70.3242 138.452C70.5396 138.353 70.7544 138.254 70.9697 138.155C71.1529 138.072 71.3364 137.989 71.5195 137.906C72.3595 137.525 73.1986 137.147 74.0371 136.775C74.2575 136.678 74.478 136.58 74.6982 136.483C76.0477 135.889 77.394 135.306 78.7344 134.736C78.958 134.641 79.182 134.548 79.4053 134.453C79.594 134.373 79.7823 134.293 79.9707 134.214C80.786 133.871 81.5995 133.534 82.4092 133.2C83.0249 132.946 83.6392 132.697 84.251 132.448C84.6208 132.298 84.9891 132.147 85.3574 131.999C85.9777 131.75 86.5966 131.505 87.2119 131.262C87.6098 131.104 88.0057 130.945 88.4014 130.79C88.9615 130.57 89.52 130.355 90.0752 130.14C90.4949 129.977 90.9124 129.814 91.3291 129.654C92.1524 129.339 92.9698 129.029 93.7803 128.724C93.8739 128.688 93.9671 128.652 94.0605 128.617C94.8355 128.326 95.6046 128.042 96.3662 127.761C96.5801 127.682 96.7931 127.603 97.0059 127.524C97.7395 127.255 98.4668 126.991 99.1865 126.731C99.3858 126.659 99.5841 126.587 99.7822 126.516C101.599 125.862 103.367 125.239 105.078 124.647L107.636 123.771C112.191 122.224 116.754 120.713 121.322 119.23C121.93 119.033 122.537 118.835 123.146 118.639C124.102 118.33 125.059 118.025 126.016 117.719C126.882 117.442 127.748 117.164 128.615 116.89C129.443 116.627 130.271 116.367 131.1 116.106C131.967 115.834 132.834 115.561 133.701 115.29C134.631 115 135.561 114.712 136.491 114.424C137.356 114.156 138.22 113.889 139.085 113.624C139.962 113.355 140.84 113.088 141.718 112.82C142.56 112.564 143.403 112.308 144.246 112.053C145.172 111.773 146.099 111.494 147.025 111.216C147.835 110.973 148.644 110.731 149.454 110.49C150.466 110.189 151.479 109.889 152.491 109.59C153.167 109.391 153.842 109.192 154.518 108.994C155.528 108.698 156.537 108.401 157.548 108.107C158.456 107.843 159.364 107.581 160.272 107.318C161.087 107.083 161.902 106.848 162.717 106.614C163.664 106.342 164.612 106.072 165.56 105.802C166.372 105.57 167.184 105.339 167.996 105.109C168.939 104.842 169.883 104.578 170.826 104.312C171.679 104.073 172.532 103.832 173.386 103.594C174.111 103.391 174.837 103.191 175.562 102.989C176.635 102.691 177.707 102.393 178.78 102.098C179.43 101.919 180.08 101.742 180.729 101.563C184.507 100.527 188.286 99.5044 192.068 98.4932C194.655 97.8015 197.242 97.1138 199.831 96.4326C200.513 96.2533 201.194 96.0751 201.876 95.8965C202.909 95.6257 203.942 95.3552 204.976 95.0859C205.872 94.8523 206.769 94.6202 207.666 94.3877C208.531 94.1634 209.396 93.9391 210.261 93.7158C211.315 93.4437 212.37 93.1721 213.425 92.9014C214.068 92.7363 214.711 92.5708 215.354 92.4062C216.403 92.1379 217.452 91.8706 218.501 91.6035C219.258 91.4109 220.015 91.2184 220.771 91.0264C221.79 90.7681 222.808 90.5101 223.826 90.2529C224.681 90.0372 225.535 89.8224 226.39 89.6074C227.146 89.4172 227.901 89.2267 228.657 89.0371C229.573 88.8074 230.489 88.5776 231.405 88.3486C232.561 88.0598 233.717 87.7721 234.873 87.4844C235.254 87.3896 235.635 87.2949 236.016 87.2002C237.116 86.9268 238.216 86.6543 239.316 86.3818C241.385 85.8697 243.454 85.3606 245.522 84.8516C247.071 84.4706 248.619 84.0885 250.167 83.709C252.924 83.0333 255.682 82.3613 258.439 81.6895C259.161 81.5138 259.881 81.3366 260.603 81.1611C264.185 80.2895 267.768 79.4205 271.351 78.5527L282.327 75.8965C288.287 74.4551 294.247 73.0131 300.204 71.5664C342.303 61.3432 384.305 50.848 425.785 38.085C429.853 36.8333 433.928 35.4805 438.01 34.0645L440.052 33.3516C444.816 31.6758 449.588 29.9211 454.366 28.1484C455.732 27.6419 457.098 27.1342 458.464 26.626C462.506 25.1224 466.553 23.6173 470.602 22.1465C471.034 21.9895 471.466 21.8348 471.898 21.6787C472.537 21.448 473.175 21.2169 473.813 20.9883C474.065 20.8982 474.317 20.8094 474.568 20.7197C475.304 20.4575 476.039 20.1965 476.774 19.9375C477.153 19.8043 477.531 19.6723 477.909 19.54C478.565 19.3108 479.22 19.0826 479.876 18.8564C480.209 18.7415 480.543 18.6278 480.876 18.5137C481.559 18.2799 482.241 18.0463 482.924 17.8164C483.293 17.6921 483.663 17.5704 484.032 17.4473C484.674 17.2332 485.316 17.0198 485.958 16.8096C486.697 16.5675 487.436 16.3274 488.176 16.0908C488.516 15.9821 488.855 15.8741 489.195 15.7666C489.331 15.7237 489.467 15.6804 489.603 15.6377C489.89 15.5473 490.177 15.4576 490.464 15.3682C490.719 15.2887 490.974 15.2095 491.229 15.1309C491.585 15.0208 491.941 14.9113 492.298 14.8027C492.398 14.7721 492.499 14.7414 492.6 14.7109C492.999 14.5897 493.399 14.4699 493.799 14.3506C493.933 14.3106 494.066 14.2702 494.2 14.2305C494.581 14.1175 494.962 14.0066 495.343 13.8955C495.472 13.8579 495.601 13.8196 495.729 13.7822C496.032 13.6946 496.334 13.6079 496.636 13.5215C496.877 13.4525 497.117 13.3836 497.358 13.3154C497.73 13.2103 498.102 13.1071 498.474 13.0039C498.569 12.9774 498.664 12.9502 498.76 12.9238C500.17 12.5341 501.581 12.1588 502.991 11.7988C504.672 11.3699 506.353 10.963 508.033 10.5811C534.285 4.61477 559.112 2.00798 584.45 0.87207C587.266 0.745839 590.087 0.638414 592.918 0.545898C602.825 0.222155 612.841 0.088814 623.081 0.0351562C630.395 -0.00318939 637.823 -0.00129122 645.406 0.000976562C647.209 0.00151577 649.022 0.00195308 650.843 0.00195312Z"
    fill="black"
  />
</svg>
